# xmcd CD database file
#
# Track frame offsets:
#	150
#	21597
#	32078
#	60476
#	77432
#	96467
#	120635
#	140393
#	156740
#	164711
#	189618
#	201522
#	226985
#	234404
#
# Disc length: 3157 seconds
#
# Revision: 0
# Processed by: cddbd v1.5.2PL0 Copyright (c) Steve Scherf et al.
# Submitted via: CDex 1.51
#
DISCID=c70c530e
DTITLE=B.B. KING - Fillmore East, NYC June 19, 1971(Late Show)
DYEAR=1971
DGENRE=Blues
TTITLE0=Instrumental
TTITLE1=Every Day I Have The Blues
TTITLE2=How Blue Can You Get
TTITLE3=Instrumental
TTITLE4=A Whole Lotta Lovin'
TTITLE5=Nobody Loves Me Byut My Mother
TTITLE6=Hummingbird
TTITLE7=Instrumental
TTITLE8=Intros
TTITLE9=Sweet Sixteen
TTITLE10=Instrumental
TTITLE11=The Thrill Is Gone
TTITLE12=Instrumental
TTITLE13=Crowd
EXTD=YEAR: 1971
EXTT0=
EXTT1=
EXTT2=
EXTT3=
EXTT4=
EXTT5=
EXTT6=
EXTT7=
EXTT8=
EXTT9=
EXTT10=
EXTT11=
EXTT12=
EXTT13=
PLAYORDER=
